P3
# Created by ppm-class, by Dr. Jan Pearce
3 2
255
0 0 255 0 255 0 0 30 30 
40 40 40 50 50 50 60 60 60 
