P3
# Created by IrfanView
3 2
255
63 72 204 255 255 255 255 255 255 255 255 255 237 28 36 
255 255 255 